<svg width="125" height="38" viewBox="0 0 125 38" fill="none" xmlns="http://www.w3.org/2000/svg">
<path d="M77.3216 29.3727C70.0788 34.7112 59.5808 37.5595 50.5422 37.5595C37.8687 37.5595 26.4592 32.872 17.8275 25.0758C17.1493 24.4628 17.757 23.6273 18.5708 24.1047C27.886 29.5246 39.404 32.7852 51.3018 32.7852C59.3258 32.7852 68.1528 31.1251 76.2691 27.68C77.4952 27.1592 78.5206 28.4829 77.3216 29.3727Z" fill="#FF9900"/>
<path d="M80.3328 25.9276C79.4105 24.7449 74.213 25.3688 71.8801 25.6455C71.1694 25.7323 71.0609 25.1138 71.7011 24.6689C75.8406 21.7555 82.6331 22.5964 83.4252 23.573C84.2173 24.555 83.2191 31.3638 79.3291 34.6135C78.7323 35.1127 78.1627 34.8468 78.4285 34.1849C79.302 32.004 81.2605 27.1157 80.3328 25.9276Z" fill="#FF9900"/>
<path d="M72.0429 4.10151V1.26949C72.0429 0.840886 72.3684 0.553345 72.759 0.553345H85.438C85.8449 0.553345 86.1704 0.846312 86.1704 1.26949V3.69461C86.165 4.10151 85.8232 4.63319 85.2155 5.47411L78.6455 14.8545C81.0869 14.7948 83.6639 15.1583 85.8774 16.4061C86.3766 16.6883 86.5122 17.1006 86.5502 17.5075V20.5294C86.5502 20.9417 86.0944 21.4246 85.617 21.175C81.7162 19.1297 76.535 18.9072 72.2219 21.1967C71.7824 21.4354 71.3213 20.958 71.3213 20.5457V17.6757C71.3213 17.2145 71.3267 16.4278 71.7879 15.728L79.3996 4.81222H72.7753C72.3684 4.81222 72.0429 4.52468 72.0429 4.10151Z" fill="white"/>
<path d="M25.792 21.7719H21.9346C21.5657 21.7448 21.2727 21.4681 21.2456 21.1154V1.31841C21.2456 0.922363 21.5765 0.607692 21.9889 0.607692H25.5859C25.9602 0.623957 26.2586 0.91151 26.2857 1.26958V3.85746H26.3563C27.2948 1.35639 29.0581 0.189941 31.4344 0.189941C33.8486 0.189941 35.3569 1.35639 36.4419 3.85746C37.3751 1.35639 39.4964 0.189941 41.7696 0.189941C43.3864 0.189941 45.155 0.857256 46.2346 2.35465C47.4553 4.02022 47.2058 6.43991 47.2058 8.56122L47.2004 21.0557C47.2004 21.4518 46.8694 21.7719 46.4571 21.7719H42.6051C42.2199 21.7448 41.9107 21.4355 41.9107 21.0557V10.5632C41.9107 9.72766 41.9866 7.64434 41.8022 6.85224C41.5146 5.52304 40.652 5.14869 39.5344 5.14869C38.6012 5.14869 37.6247 5.7726 37.2286 6.77086C36.8326 7.76912 36.8705 9.44012 36.8705 10.5632V21.0557C36.8705 21.4518 36.5396 21.7719 36.1273 21.7719H32.2753C31.8847 21.7448 31.5808 21.4355 31.5808 21.0557L31.5754 10.5632C31.5754 8.35506 31.9389 5.10529 29.1991 5.10529C26.4268 5.10529 26.5353 8.27367 26.5353 10.5632V21.0557C26.5353 21.4518 26.2044 21.7719 25.792 21.7719Z" fill="white"/>
<path d="M97.0863 0.189941C102.81 0.189941 105.908 5.10529 105.908 11.3553C105.908 17.3936 102.484 22.1842 97.0863 22.1842C91.4657 22.1842 88.4058 17.2689 88.4058 11.1437C88.4058 4.9805 91.5036 0.189941 97.0863 0.189941ZM97.1188 4.23181C94.276 4.23181 94.0969 8.10549 94.0969 10.5198C94.0969 12.9395 94.059 18.1044 97.0863 18.1044C100.076 18.1044 100.217 13.9377 100.217 11.3987C100.217 9.72766 100.146 7.73114 99.6416 6.14695C99.2076 4.76892 98.345 4.23181 97.1188 4.23181Z" fill="white"/>
<path d="M113.33 21.7719H109.488C109.103 21.7448 108.794 21.4355 108.794 21.0557L108.789 1.2533C108.821 0.889808 109.141 0.607692 109.532 0.607692H113.107C113.443 0.623957 113.72 0.851832 113.796 1.16108V4.1884H113.867C114.946 1.48117 116.46 0.189941 119.124 0.189941C120.854 0.189941 122.542 0.813854 123.627 2.52283C124.636 4.10703 124.636 6.77086 124.636 8.686V21.148C124.593 21.4952 124.272 21.7719 123.893 21.7719H120.024C119.672 21.7448 119.379 21.4843 119.341 21.148V10.395C119.341 8.23027 119.59 5.06188 116.927 5.06188C115.988 5.06188 115.125 5.69122 114.697 6.64608C114.154 7.85593 114.084 9.06035 114.084 10.395V21.0557C114.078 21.4518 113.742 21.7719 113.33 21.7719Z" fill="white"/>
<path d="M61.9354 12.3155V11.48C59.1468 11.48 56.2008 12.0768 56.2008 15.3645C56.2008 17.0301 57.0634 18.1586 58.5446 18.1586C59.6296 18.1586 60.6008 17.4912 61.2138 16.4062C61.9734 15.0716 61.9354 13.8183 61.9354 12.3155ZM65.8253 21.7176C65.5704 21.9454 65.2014 21.9617 64.9139 21.8098C63.6335 20.7464 63.4057 20.2527 62.7004 19.2382C60.5845 21.3975 59.0871 22.0431 56.3419 22.0431C53.0975 22.0431 50.5693 20.0411 50.5693 16.0318C50.5693 12.9014 52.2675 10.7693 54.6817 9.72761C56.7759 8.8053 59.7002 8.64254 61.9354 8.38755V7.88842C61.9354 6.97154 62.0059 5.88648 61.4688 5.09438C60.9968 4.38366 60.0962 4.09069 59.3041 4.09069C57.8338 4.09069 56.5209 4.84481 56.2008 6.40731C56.1357 6.75453 55.8807 7.09633 55.5335 7.1126L51.79 6.71112C51.4754 6.6406 51.1281 6.38561 51.2149 5.90276C52.0776 1.36719 56.1737 0 59.8412 0C61.7184 0 64.1706 0.49913 65.6517 1.92056C67.5289 3.67294 67.3499 6.01126 67.3499 8.55574V14.567C67.3499 16.3736 68.0986 17.1657 68.8039 18.1423C69.0534 18.4895 69.1077 18.9073 68.793 19.1677C68.0063 19.8241 66.6066 21.0448 65.8362 21.7284L65.8253 21.7176Z" fill="white"/>
<path d="M11.3661 12.3155V11.48C8.57744 11.48 5.63149 12.0768 5.63149 15.3645C5.63149 17.0301 6.49411 18.1586 7.97522 18.1586C9.06029 18.1586 10.0314 17.4912 10.6445 16.4062C11.404 15.0716 11.3661 13.8183 11.3661 12.3155ZM15.256 21.7176C15.001 21.9454 14.6321 21.9617 14.3446 21.8098C13.0642 20.7464 12.8363 20.2527 12.131 19.2382C10.0151 21.3975 8.51776 22.0431 5.77254 22.0431C2.5282 22.0431 0 20.0411 0 16.0318C0 12.9014 1.69813 10.7693 4.11239 9.72761C6.20657 8.8053 9.13082 8.64254 11.3661 8.38755V7.88842C11.3661 6.97154 11.4366 5.88648 10.8995 5.09438C10.4275 4.38366 9.52687 4.09069 8.73477 4.09069C7.26451 4.09069 5.95158 4.84481 5.63149 6.40731C5.56638 6.75453 5.31139 7.09633 4.96417 7.1126L1.2207 6.71112C0.906029 6.6406 0.558807 6.38561 0.645613 5.90276C1.50824 1.36719 5.60436 0 9.27188 0C11.149 0 13.6013 0.49913 15.0824 1.92056C16.9596 3.67294 16.7805 6.01126 16.7805 8.55574V14.567C16.7805 16.3736 17.5292 17.1657 18.2345 18.1423C18.4841 18.4895 18.5383 18.9073 18.2237 19.1677C17.437 19.8241 16.0373 21.0448 15.2669 21.7284L15.256 21.7176Z" fill="white"/>
</svg>
