<svg width="172" height="24" viewBox="0 0 172 24" fill="none" xmlns="http://www.w3.org/2000/svg">
<path d="M0 22.2089H20.7761L19.5821 23.8805H0V22.2089Z" fill="#D40511"/>
<path d="M171.343 23.8805H145.91L147.224 22.2089H171.463V23.8805H171.343Z" fill="#D40511"/>
<path d="M0 19.1045H23.1642L21.8507 20.7761H0V19.1045Z" fill="#D40511"/>
<path d="M0 16H25.5522L24.2388 17.6716H0V16Z" fill="#D40511"/>
<path d="M171.343 20.7761H148.298L149.612 19.1045H171.463V20.7761H171.343Z" fill="#D40511"/>
<path d="M151.881 16H171.343V17.6716H150.567L151.881 16Z" fill="#D40511"/>
<path d="M22.4478 23.8805L33.4328 9.19397C33.4328 9.19397 45.6119 9.19397 47.0448 9.19397C48.597 9.19397 48.597 9.79098 47.7612 10.7462C47.0448 11.7014 45.7313 13.4925 45.0149 14.4477C44.6567 15.0447 43.9403 15.8805 46.2089 15.8805C48.7164 15.8805 64.4776 15.8805 64.4776 15.8805C63.0448 18.0298 58.0298 23.9999 49.194 23.9999C42.0298 23.8805 22.4478 23.8805 22.4478 23.8805Z" fill="#D40511"/>
<path d="M85.3732 16L79.403 24H63.7612L69.7314 16H85.3732Z" fill="#D40511"/>
<path d="M108.179 16L102.209 24H86.4478L92.4179 16H108.179Z" fill="#D40511"/>
<path d="M113.313 16C113.313 16 112.119 17.5522 111.642 18.2687C109.612 20.8955 111.403 24 117.851 24C125.254 24 143.164 24 143.164 24L149.134 16H113.313Z" fill="#D40511"/>
<path d="M30.2088 0.119403L24.7163 7.40298C24.7163 7.40298 53.0148 7.40298 54.5671 7.40298C56.1193 7.40298 56.1193 7.99999 55.2835 8.95521C54.567 9.91044 53.2536 11.7015 52.5372 12.6567C52.179 13.1343 51.4626 14.0895 53.7312 14.0895C56.2387 14.0895 65.9103 14.0895 65.9103 14.0895C65.9103 14.0895 67.9402 11.4627 69.4924 9.19402C71.7611 6.20895 69.7312 0 61.7312 0C54.5671 0.119403 30.2088 0.119403 30.2088 0.119403Z" fill="#D40511"/>
<path d="M109.492 14.0895H71.0447L81.5521 0.119385H97.3133L91.3432 8.11938H98.388L104.358 0.119385H120.119L109.492 14.0895Z" fill="#D40511"/>
<path d="M141.851 0.119385L131.343 14.0895H114.627L125.134 0.119385H141.851Z" fill="#D40511"/>
</svg>
