<svg width="125" height="38" viewBox="0 0 125 38" fill="none" xmlns="http://www.w3.org/2000/svg">
<path d="M103.282 13.3896L108.413 19.0439L113.352 13.3896H123.899L113.592 24.9807L124.04 36.6665H113.068L107.986 30.9675L102.95 36.6665H92.3545L102.712 25.0289L92.3545 13.3896H103.282Z" fill="#FF5900"/>
<path d="M92.3545 13.3897V21.2543H80.6239V28.4711H92.3545V36.6665H72.0029V0H92.3545V8.17301H80.6239V13.3897H92.3545Z" fill="#FF5900"/>
<path d="M63.4183 0V15.0057H63.3236C61.4216 12.8211 59.0476 12.0614 56.2928 12.0614C50.6489 12.0614 46.397 15.8998 44.905 20.9718C43.2012 15.383 38.8114 11.9563 32.3027 11.9563C27.0171 11.9563 22.8427 14.3286 20.6651 18.1946V13.3897H9.73904V8.17301H21.6626V0H0V36.6665H9.73904V21.2543H19.4471C19.1576 22.3862 19.0026 23.599 19.0026 24.8791C19.0026 32.5266 24.8464 37.8949 32.3027 37.8949C38.5737 37.8949 42.7067 34.9506 44.8912 29.5841H36.5442C35.4158 31.1984 34.5596 31.6756 32.3027 31.6756C29.6857 31.6756 27.4288 29.3928 27.4288 26.6863H44.4244C45.1617 32.7609 49.8943 38 56.3875 38C59.1888 38 61.7541 36.6218 63.3218 34.296H63.4166V36.67H72.0014V0H63.4183ZM27.701 21.3628C28.242 19.0336 30.0492 17.5124 32.3044 17.5124C34.787 17.5124 36.5012 18.9871 36.9525 21.3628C37.142 21.3628 27.701 21.3628 27.701 21.3628ZM58.2068 31.0846C55.042 31.0846 53.0746 28.1352 53.0746 25.0565C53.0746 21.766 54.7853 18.6012 58.2068 18.6012C61.7541 18.6012 63.1668 21.766 63.1668 25.0565C63.1668 28.1765 61.6697 31.0846 58.2068 31.0846Z" fill="#7035E3"/>
</svg>
