<svg width="16" height="18" viewBox="0 0 16 18" fill="none" xmlns="http://www.w3.org/2000/svg">
<path d="M8 0C7.5856 0 7.17871 0.10875 6.81869 0.314067L1.12131 3.56994C0.428468 3.96556 0 4.7034 0 5.50028V12.4997C0 13.2966 0.428468 14.0344 1.12131 14.4301L6.81869 17.6859C7.17871 17.8912 7.5856 18 8 18C8.4144 18 8.82129 17.8912 9.18131 17.6859L14.8787 14.4301C15.5715 14.0344 16 13.2966 16 12.4997V5.50028C16 4.7034 15.5715 3.96559 14.8787 3.56994L9.18131 0.314067C8.82129 0.108752 8.4144 0 8 0ZM8 4.99973C8.13219 4.99973 8.25969 5.05317 8.35346 5.14692C8.44722 5.24067 8.49972 5.36724 8.49972 5.50037V8.13296L10.7817 6.81669C10.8961 6.75107 11.033 6.73325 11.1605 6.76794C11.2889 6.80169 11.3986 6.88513 11.4652 7.00044C11.5317 7.11482 11.5495 7.2517 11.5148 7.38013C11.4802 7.50855 11.3967 7.61732 11.2814 7.68388L9.00035 9.00015L11.2814 10.3164C11.3967 10.383 11.4802 10.4917 11.5148 10.6202C11.5495 10.7486 11.5317 10.8855 11.4652 10.9998C11.3986 11.1152 11.2898 11.1995 11.1614 11.2333C11.033 11.268 10.8961 11.2502 10.7817 11.1836L8.49972 9.86733V12.4999C8.49972 12.633 8.44722 12.7596 8.35346 12.8534C8.25971 12.9471 8.1322 13.0006 8 13.0006C7.72344 13.0006 7.5003 12.7765 7.5003 12.4999V9.86735L5.21832 11.1836C5.10394 11.2502 4.96705 11.268 4.83862 11.2333C4.71018 11.1996 4.60142 11.1152 4.53486 10.9999C4.4683 10.8855 4.45049 10.7486 4.48518 10.6202C4.51986 10.4918 4.60331 10.383 4.71862 10.3164L6.99966 9.00017L4.71862 7.6839C4.60331 7.61733 4.51987 7.50858 4.48518 7.38015C4.45048 7.25172 4.4683 7.11483 4.53486 7.00046C4.60143 6.88515 4.71112 6.80171 4.83956 6.76796C4.96706 6.73327 5.10395 6.75109 5.21832 6.81671L7.5003 8.13298V5.50039C7.5003 5.22384 7.72343 4.99973 8 4.99973Z" fill="#2461FE"/>
</svg>
