<svg width="90" height="22" viewBox="0 0 90 22" fill="none" xmlns="http://www.w3.org/2000/svg">
<path d="M10.0379 13.3636C10.3405 12.8788 11.097 12.8788 11.3996 13.3636L13.6123 16.9091C13.9148 17.3939 13.5366 18 12.9314 18H8.50607C7.90089 18 7.52266 17.3939 7.82525 16.9091L10.0379 13.3636Z" fill="white"/>
<path d="M8.04252 11.0798C8.62899 11.0728 9.00311 11.7033 8.71594 12.2147L6.61596 15.9543C6.32879 16.4657 5.5957 16.4744 5.2964 15.97L3.10779 12.2816C2.80849 11.7772 3.16746 11.1379 3.75394 11.1309L8.04252 11.0798Z" fill="white"/>
<path d="M17.1856 11.0798C17.7721 11.0728 18.1462 11.7033 17.859 12.2147L15.759 15.9543C15.4719 16.4657 14.7388 16.4744 14.4395 15.97L12.2509 12.2816C11.9516 11.7772 12.3105 11.1379 12.897 11.1309L17.1856 11.0798Z" fill="white"/>
<path d="M13.8049 3.00009C14.7126 2.98945 15.2917 3.94777 14.8472 4.72505L11.5968 10.409C11.1523 11.1863 10.0176 11.1996 9.55439 10.4329L6.16684 4.82677C5.70358 4.06012 6.2592 3.08851 7.16695 3.07787L13.8049 3.00009Z" fill="#2461FE"/>
<path d="M31.912 12.896V13.296C31.912 14.1813 31.6533 14.896 31.136 15.44C30.6187 15.984 29.9307 16.256 29.072 16.256C28.2187 16.256 27.5307 15.984 27.008 15.44C26.4907 14.896 26.232 14.1813 26.232 13.296V6.704C26.232 5.81333 26.4907 5.09867 27.008 4.56C27.5307 4.016 28.2187 3.744 29.072 3.744C29.9307 3.744 30.6187 4.016 31.136 4.56C31.6533 5.09867 31.912 5.81333 31.912 6.704V7.104H30.712V6.704C30.712 6.176 30.5627 5.752 30.264 5.432C29.9653 5.10667 29.568 4.944 29.072 4.944C28.576 4.944 28.1787 5.10667 27.88 5.432C27.5813 5.752 27.432 6.176 27.432 6.704V13.296C27.432 13.824 27.5813 14.2507 27.88 14.576C28.1787 14.896 28.576 15.056 29.072 15.056C29.568 15.056 29.9653 14.896 30.264 14.576C30.5627 14.2507 30.712 13.824 30.712 13.296V12.896H31.912ZM36.2726 16.192C35.7286 16.192 35.2513 16.0747 34.8406 15.84C34.43 15.6053 34.1073 15.2773 33.8726 14.856C33.638 14.4293 33.5206 13.9333 33.5206 13.368V9.936C33.5206 9.38133 33.638 8.89333 33.8726 8.472C34.1073 8.04533 34.43 7.71467 34.8406 7.48C35.2513 7.24 35.7286 7.12 36.2726 7.12C37.0886 7.12 37.7473 7.37867 38.2486 7.896C38.75 8.41333 39.0006 9.09333 39.0006 9.936V13.368C39.0006 14.2107 38.75 14.8933 38.2486 15.416C37.7473 15.9333 37.0886 16.192 36.2726 16.192ZM36.2726 15.032C36.758 15.032 37.1393 14.8827 37.4166 14.584C37.6993 14.2853 37.8406 13.8933 37.8406 13.408V9.896C37.8406 9.41067 37.6993 9.02133 37.4166 8.728C37.1393 8.42933 36.758 8.28 36.2726 8.28C35.7873 8.28 35.4006 8.42933 35.1126 8.728C34.8246 9.02133 34.6806 9.41067 34.6806 9.896V13.408C34.6806 13.8933 34.8246 14.2853 35.1126 14.584C35.4006 14.8827 35.7873 15.032 36.2726 15.032ZM41.0266 16V7.32H42.1866V8.48L41.9866 8.248C42.1893 7.88533 42.4586 7.608 42.7946 7.416C43.1306 7.21867 43.5226 7.12 43.9706 7.12C44.696 7.12 45.28 7.37067 45.7226 7.872C46.1653 8.37333 46.3866 9.048 46.3866 9.896V16H45.2266V9.896C45.2266 9.41067 45.088 9.02133 44.8106 8.728C44.5386 8.42933 44.176 8.28 43.7226 8.28C43.2586 8.28 42.8853 8.42933 42.6026 8.728C42.3253 9.02133 42.1866 9.41067 42.1866 9.896V16H41.0266ZM51.8139 16.096C50.9872 16.096 50.3232 15.8347 49.8219 15.312C49.3259 14.784 49.0779 14.0773 49.0779 13.192V8.4H47.5179V7.304H49.0779V5.12H50.2379V7.304H52.3979V8.4H50.2379V13.192C50.2379 13.72 50.3819 14.144 50.6699 14.464C50.9579 14.7787 51.3392 14.936 51.8139 14.936H52.3979V16.096H51.8139ZM55.8544 16.192C55.0544 16.192 54.4357 15.9707 53.9984 15.528C53.561 15.0853 53.3424 14.5253 53.3424 13.848C53.3424 13.4267 53.4197 13.0773 53.5744 12.8C53.729 12.5173 53.9264 12.288 54.1664 12.112C54.4117 11.936 54.6704 11.7947 54.9424 11.688C55.2677 11.5547 55.5984 11.4507 55.9344 11.376C56.2757 11.296 56.5904 11.2133 56.8784 11.128C57.1664 11.0373 57.3984 10.9147 57.5744 10.76C57.7504 10.6053 57.8384 10.3867 57.8384 10.104V9.896C57.8384 9.41067 57.6917 9.02133 57.3984 8.728C57.1104 8.42933 56.7264 8.28 56.2464 8.28C55.761 8.28 55.377 8.42933 55.0944 8.728C54.817 9.02133 54.6784 9.41067 54.6784 9.896V10.136H53.5184V9.936C53.5184 9.09333 53.769 8.41333 54.2704 7.896C54.7717 7.37867 55.4304 7.12 56.2464 7.12C56.785 7.12 57.2597 7.24 57.6704 7.48C58.0864 7.71467 58.4117 8.04267 58.6464 8.464C58.881 8.88533 58.9984 9.376 58.9984 9.936V16H57.8384V14.8L58.0304 15.056C57.8277 15.4187 57.5424 15.6987 57.1744 15.896C56.8064 16.0933 56.3664 16.192 55.8544 16.192ZM56.0944 15.088C56.6384 15.088 57.065 14.936 57.3744 14.632C57.6837 14.3227 57.8384 13.8827 57.8384 13.312V11.776C57.513 11.9787 57.1504 12.1173 56.7504 12.192C56.3504 12.2613 55.969 12.3573 55.6064 12.48C55.2864 12.5867 55.0224 12.7387 54.8144 12.936C54.6064 13.128 54.5024 13.4027 54.5024 13.76C54.5024 14.1493 54.641 14.4693 54.9184 14.72C55.1957 14.9653 55.5877 15.088 56.0944 15.088ZM61.136 16V7.32H62.296V16H61.136ZM61.136 6.352V4.48H62.296V6.352H61.136ZM64.5735 16V7.32H65.7335V8.48L65.5335 8.248C65.7362 7.88533 66.0055 7.608 66.3415 7.416C66.6775 7.21867 67.0695 7.12 67.5175 7.12C68.2428 7.12 68.8268 7.37067 69.2695 7.872C69.7122 8.37333 69.9335 9.048 69.9335 9.896V16H68.7735V9.896C68.7735 9.41067 68.6348 9.02133 68.3575 8.728C68.0855 8.42933 67.7228 8.28 67.2695 8.28C66.8055 8.28 66.4322 8.42933 66.1495 8.728C65.8722 9.02133 65.7335 9.41067 65.7335 9.896V16H64.5735ZM74.6008 16.192C74.0568 16.192 73.5794 16.0747 73.1688 15.84C72.7581 15.6053 72.4354 15.2773 72.2008 14.856C71.9661 14.4293 71.8488 13.9333 71.8488 13.368V9.936C71.8488 9.38133 71.9661 8.89333 72.2008 8.472C72.4354 8.04533 72.7581 7.71467 73.1688 7.48C73.5794 7.24 74.0568 7.12 74.6008 7.12C75.4168 7.12 76.0754 7.37867 76.5768 7.896C77.0781 8.41333 77.3288 9.09333 77.3288 9.936V11.832H72.7768V10.712H76.1688V9.896C76.1688 9.41067 76.0274 9.02133 75.7448 8.728C75.4674 8.42933 75.0861 8.28 74.6008 8.28C74.1154 8.28 73.7288 8.42933 73.4408 8.728C73.1528 9.02133 73.0088 9.41067 73.0088 9.896V13.408C73.0088 13.8933 73.1528 14.2853 73.4408 14.584C73.7288 14.8827 74.1154 15.032 74.6008 15.032C75.0861 15.032 75.4674 14.8827 75.7448 14.584C76.0274 14.2853 76.1688 13.8933 76.1688 13.408V13.208H77.3288V13.368C77.3288 14.2107 77.0781 14.8933 76.5768 15.416C76.0754 15.9333 75.4168 16.192 74.6008 16.192Z" fill="white"/>
<path d="M82.184 8V2.6H81.152V2H83.812V2.6H82.784V8H82.184ZM84.6649 8V2H85.2889L86.6289 7.144H86.4929L87.8329 2H88.4569V8H87.8769V3.608L87.9449 3.62L86.7969 8H86.3249L85.1769 3.62L85.2449 3.608V8H84.6649Z" fill="white"/>
</svg>
