<svg width="17" height="11" viewBox="0 0 17 11" fill="none" xmlns="http://www.w3.org/2000/svg">
<path d="M3.927 0C1.76376 0 0 1.76786 0 3.94565C0 5.96116 1.5385 7.64789 3.49349 7.86567C3.54451 8.72399 3.24275 9.53958 2.58401 10.2954C2.43099 10.4705 2.44801 10.7395 2.6265 10.8975C2.70725 10.9658 2.80499 11 2.90701 11C3.01326 11 3.11951 10.9616 3.20026 10.8804C3.2385 10.8591 3.32776 10.8292 3.37876 10.8078C3.45951 10.7779 3.53601 10.7523 3.587 10.7224C5.29974 9.85132 6.613 8.56172 7.28876 7.09277C7.67975 6.23873 7.89651 5.23952 7.89651 4.30008C7.89651 4.17198 7.89225 4.04385 7.88374 3.91575C7.74349 1.75504 5.96699 0 3.927 0Z" fill="#2461FE"/>
<path d="M13.0305 0C10.8673 0 9.10349 1.76786 9.10349 3.94565C9.10349 5.96116 10.642 7.64789 12.6013 7.86567C12.648 8.72399 12.3462 9.53958 11.6918 10.2954C11.5345 10.4705 11.5558 10.7395 11.73 10.8975C11.8107 10.9658 11.9128 11 12.0105 11C12.1168 11 12.223 10.9616 12.308 10.8804C12.342 10.8591 12.4313 10.8292 12.4823 10.8078C12.5673 10.7779 12.6395 10.7523 12.6947 10.7224C14.4033 9.85132 15.7165 8.56172 16.3923 7.09277C16.7832 6.23873 17 5.23952 17 4.30008C17 4.17198 16.9957 4.04385 16.9872 3.91575C16.847 1.75504 15.0747 0 13.0305 0Z" fill="#2461FE"/>
</svg>
